<?xml version="1.0" encoding="UTF-8" standalone="no"?>
<!-- Created with Inkscape (http://www.inkscape.org/) -->

<svg
   xmlns:dc="http://purl.org/dc/elements/1.1/"
   xmlns:cc="http://creativecommons.org/ns#"
   xmlns:rdf="http://www.w3.org/1999/02/22-rdf-syntax-ns#"
   xmlns:svg="http://www.w3.org/2000/svg"
   xmlns="http://www.w3.org/2000/svg"
   xmlns:sodipodi="http://sodipodi.sourceforge.net/DTD/sodipodi-0.dtd"
   xmlns:inkscape="http://www.inkscape.org/namespaces/inkscape"
   width="33.888237mm"
   height="32.617786mm"
   viewBox="0 0 120.07643 115.57483"
   id="svg7632"
   version="1.1"
   inkscape:version="0.91 r"
   sodipodi:docname="logo.svg">
  <defs
     id="defs7634" />
  <sodipodi:namedview
     id="base"
     pagecolor="#ffffff"
     bordercolor="#666666"
     borderopacity="1.0"
     inkscape:pageopacity="0.0"
     inkscape:pageshadow="2"
     inkscape:zoom="0.35"
     inkscape:cx="136.46679"
     inkscape:cy="-53.641156"
     inkscape:document-units="px"
     inkscape:current-layer="layer1"
     showgrid="false"
     fit-margin-top="0"
     fit-margin-left="0"
     fit-margin-right="0"
     fit-margin-bottom="0"
     inkscape:window-width="1916"
     inkscape:window-height="1049"
     inkscape:window-x="0"
     inkscape:window-y="25"
     inkscape:window-maximized="1" />
  <metadata
     id="metadata7637">
    <rdf:RDF>
      <cc:Work
         rdf:about="">
        <dc:format>image/svg+xml</dc:format>
        <dc:type
           rdf:resource="http://purl.org/dc/dcmitype/StillImage" />
        <dc:title></dc:title>
      </cc:Work>
    </rdf:RDF>
  </metadata>
  <g
     inkscape:label="Layer 1"
     inkscape:groupmode="layer"
     id="layer1"
     transform="translate(154.32393,-394.57479)">
    <path
       inkscape:connector-curvature="0"
       id="path208"
       style="fill:#231f20;fill-opacity:1;fill-rule:nonzero;stroke:none"
       d="m -71.568786,460.91198 c -0.0125,-0.32375 -0.32875,-0.65 -1.09,-0.9925 l -16.57875,-9.1875 c -1.14875,-0.6475 -2.5575,-0.90875 -4.23375,-0.85125 -2.49375,0.0987 -4.47875,0.745 -5.93,1.95875 l -3.076254,2.5825 22.901254,12.53625 c 0.405,0.3075 0.77,0.56375 1.07375,0.82875 l 5.55875,-4.81125 c 0.92875,-0.90625 1.4025,-1.60375 1.375,-2.06375 m -42.461254,-29.3275 c -0.075,-1.6425 -0.88875,-2.42375 -2.50125,-2.3675 -1.6875,0.0675 -2.49375,0.9125 -2.42375,2.5525 0.0525,1.545 0.92625,2.295 2.61875,2.2275 1.60625,-0.0725 2.3625,-0.8775 2.30625,-2.4125 m 48.126254,38.63125 -11.5025,9.70125 -7.8875,6.79375 c -0.825,0.81125 -1.9,1.225 -3.07625,1.275 -1.41125,0.0525 -2.6075,-0.365 -3.6375,-1.2325 -1.065,-0.85625 -1.58625,-2.01375 -1.6475,-3.3275 -0.045,-1.5625 0.5125,-2.80375 1.6725,-3.8275 l 0.8875,-0.76125 c 0.27,-0.27 0.54125,-0.59125 0.815,-0.88125 l 4.0825,-3.48625 -22.998754,-12.72375 c -0.4325,-0.16375 -0.80875,-0.39 -1.12375,-0.65 l -6.81375,5.89375 c -0.87625,0.725 -1.905,1.0625 -3.135,1.1125 -1.395,0.0525 -2.57125,-0.37625 -3.55,-1.305 -0.985,-0.935 -1.53125,-2.03125 -1.5875,-3.26 -0.0525,-1.5625 0.49875,-2.80375 1.67375,-3.79875 l 17.7575,-15.165 c 1.04875,-0.90375 2.31875,-1.68375 3.79125,-2.315 l -5.09,-3.9825 c -2.39125,-1.76 -4.19875,-2.61 -5.3675,-2.56625 -0.5125,0.02 -1.22375,0.18125 -2.18625,0.44375 -0.9225,0.30375 -1.645,0.4375 -2.13875,0.44875 -1.40875,0.0537 -2.605,-0.33125 -3.5875,-1.24375 -0.97625,-0.85 -1.53875,-1.97125 -1.58875,-3.335 -0.10125,-2.505 1.07625,-4.08125 3.43875,-4.775 3.27375,-1.06 6.0625,-1.43125 8.37,-0.99375 l 3.39375,-6.1975 c 0.9125,-1.595 2.3575,-2.4175 4.38125,-2.495 1.28625,-0.0537 2.4725,0.35875 3.506254,1.19 1.04,0.92375 1.57625,2.03875 1.615,3.39125 0.03875,0.83125 -0.1225,1.67375 -0.485,2.47125 l -3.368754,6.03 10.207504,7.7175 23.8275,13.13625 c 3.63625,2.05875 5.7025,4.89 6.035,8.5775 0.34875,3.82 -1.21375,7.215 -4.6825,10.14 m -61.052504,16.1575 c 9.7225,8.60999 21.2075,12.68749 34.517504,12.18874 13.16875,-0.51125 24.28625,-5.47749 33.34625,-14.90749 9.025,-9.375 13.2925,-20.45875 12.7925,-33.12875 -0.505,-12.81625 -5.6,-23.54 -15.2775,-32.1475 -9.74625,-8.6575 -21.23375,-12.715 -34.52625,-12.205 -13.296254,0.505 -24.450004,5.43625 -33.443754,14.805 -8.995,9.32875 -13.2175,20.405 -12.71625,33.22875 0.5025,12.7875 5.60125,23.5175 15.3075,32.16625 m -8.15,8.46249 c -12.155,-10.81374 -18.53125,-24.20124 -19.1675,-40.17124 -0.63,-15.8925 4.675,-29.69 16.01875,-41.4425 11.29875,-11.77625 25.1825,-17.95875 41.691254,-18.595 16.61125,-0.63 30.96875,4.4425 43.1075,15.2725 12.17375,10.78875 18.5225,24.1925 19.1575,40.1575 0.63625,15.98125 -4.64625,29.815 -15.925,41.5175 -11.24,11.71999 -25.1575,17.89249 -41.75875,18.51999 -16.622504,0.65 -30.991254,-4.44625 -43.123754,-15.25875" />
  </g>
</svg>
